<svg width="591" height="487" viewBox="0 0 591 487" fill="none" xmlns="http://www.w3.org/2000/svg">
<g filter="url(#filter0_b_29_2)">
<rect x="86.2403" y="128.875" width="158.53" height="101.613" fill="white"/>
<path d="M185.709 311.771H480V392.613H185.709V311.771Z" fill="#FF1616"/>
<path d="M177.288 149.173C176.611 150.391 175.798 151 174.85 151C173.896 151 173.083 150.391 172.412 149.173L152.835 113.988V159.299C152.835 161.303 151.617 162.302 149.191 162.302H144.315C141.884 162.302 140.671 161.303 140.671 159.299V96.0294C140.671 94.0154 141.884 93.0059 144.315 93.0059H148.526C150.508 93.0059 151.949 93.7719 152.835 95.2989L174.629 132.859L196.323 95.2989C197.124 93.7719 198.564 93.0059 200.633 93.0059H204.843C207.269 93.0059 208.488 94.0154 208.488 96.0294V159.299C208.488 161.303 207.269 162.302 204.843 162.302H199.968C197.536 162.302 196.323 161.303 196.323 159.299V114.251L177.288 149.173Z" fill="black"/>
<path d="M238.904 163.215C234.176 163.215 230.168 162.2 226.887 160.171C223.599 158.132 221.088 155.317 219.352 151.73C217.628 148.149 216.766 144.039 216.766 139.413C216.766 134.857 217.776 130.723 219.795 127.015C221.826 123.311 224.652 120.369 228.266 118.188C231.892 115.996 236.134 114.901 240.997 114.901C247.35 114.901 252.626 116.012 256.831 118.228C261.029 120.45 264.157 123.322 266.213 126.852C268.282 130.373 269.316 134.107 269.316 138.053C269.316 138.297 269.316 138.54 269.316 138.784C269.839 142.857 270.43 146.551 271.089 149.863C271.76 153.181 272.425 155.925 273.083 158.102C273.163 158.294 273.207 158.538 273.207 158.832C273.207 160.658 272.055 161.729 269.759 162.038L263.455 162.667C261.399 162.84 260.112 162.15 259.589 160.577C259.293 159.603 259.035 158.599 258.826 157.554C256.314 159.329 253.396 160.714 250.084 161.713C246.765 162.713 243.041 163.215 238.904 163.215ZM238.904 157.736C242.511 157.736 245.503 156.752 247.867 154.774C250.231 152.8 252.017 150.299 253.236 147.266C254.448 144.222 255.058 141.092 255.058 137.871C255.058 137.871 255.058 137.861 255.058 137.83C255.058 137.79 255.058 137.683 255.058 137.506C254.972 137.196 254.935 136.856 254.935 136.491C254.935 136.197 254.935 135.923 254.935 135.679C254.719 133.001 254.054 130.495 252.94 128.151C251.838 125.812 250.293 123.93 248.311 122.51C246.322 121.079 243.884 120.359 240.997 120.359C239.452 120.359 237.9 121.287 236.343 123.139C234.798 124.996 233.511 127.38 232.477 130.302C231.443 133.224 230.925 136.263 230.925 139.413C230.925 142.578 231.326 145.561 232.132 148.362C232.951 151.152 233.985 153.409 235.235 155.139C236.497 156.874 237.722 157.736 238.904 157.736Z" fill="black"/>
<path d="M298.207 159.197C298.207 160.05 297.838 160.78 297.099 161.389C296.36 161.998 295.474 162.302 294.439 162.302H288.455C287.421 162.302 286.535 161.998 285.796 161.389C285.069 160.78 284.712 160.05 284.712 159.197V96.1105C284.712 95.2583 285.069 94.5278 285.796 93.919C286.535 93.3103 287.421 93.0059 288.455 93.0059H294.439C295.474 93.0059 296.36 93.3103 297.099 93.919C297.838 94.5278 298.207 95.2583 298.207 96.1105V134.949L326.526 116.078C327.117 115.662 327.812 115.449 328.619 115.449C329.21 115.449 329.764 115.57 330.293 115.814L331.845 116.544C333.384 117.265 334.159 118.264 334.159 119.547C334.159 120.577 333.568 121.49 332.386 122.287L307.934 138.601L332.066 155.748C333.31 156.59 333.938 157.554 333.938 158.649C333.938 159.745 333.31 160.572 332.066 161.125L329.407 162.302C328.964 162.474 328.446 162.566 327.855 162.566C326.969 162.566 326.23 162.353 325.639 161.937L300.645 144.161C300.411 144.039 300.226 143.887 300.078 143.695L298.207 144.973V159.197Z" fill="black"/>
<path d="M361.577 104.227C361.577 105.079 361.208 105.81 360.469 106.419C359.743 107.027 358.868 107.332 357.834 107.332H351.185C350.151 107.332 349.265 107.027 348.526 106.419C347.787 105.81 347.418 105.079 347.418 104.227V98.8499C347.418 97.9976 347.787 97.2671 348.526 96.6584C349.265 96.0496 350.151 95.7453 351.185 95.7453H357.834C358.868 95.7453 359.743 96.0496 360.469 96.6584C361.208 97.2671 361.577 97.9976 361.577 98.8499V104.227ZM361.577 159.197C361.577 160.05 361.208 160.78 360.469 161.389C359.743 161.998 358.868 162.302 357.834 162.302H351.185C350.151 162.302 349.265 161.998 348.526 161.389C347.787 160.78 347.418 160.05 347.418 159.197V118.898C347.418 118.046 347.787 117.325 348.526 116.727C349.265 116.118 350.151 115.814 351.185 115.814H357.834C358.868 115.814 359.743 116.118 360.469 116.727C361.208 117.325 361.577 118.046 361.577 118.898V159.197Z" fill="black"/>
<path d="M225.131 270.543C224.454 271.76 223.641 272.369 222.693 272.369C221.739 272.369 220.926 271.76 220.255 270.543L200.678 235.357V280.668C200.678 282.672 199.459 283.672 197.034 283.672H192.158C189.726 283.672 188.514 282.672 188.514 280.668V217.399C188.514 215.385 189.726 214.376 192.158 214.376H196.369C198.351 214.376 199.792 215.142 200.678 216.669L222.471 254.228L244.166 216.669C244.966 215.142 246.407 214.376 248.475 214.376H252.686C255.112 214.376 256.331 215.385 256.331 217.399V280.668C256.331 282.672 255.112 283.672 252.686 283.672H247.811C245.379 283.672 244.166 282.672 244.166 280.668V235.621L225.131 270.543Z" fill="black"/>
<path d="M314.179 277.564C311.895 279.446 308.995 281.09 305.486 282.495C301.99 283.885 298.173 284.585 294.036 284.585C284.888 284.585 277.789 282.414 272.735 278.071C267.693 273.719 265.175 267.864 265.175 260.519C265.175 255.892 266.333 251.763 268.647 248.121C270.974 244.468 274.188 241.582 278.276 239.456C282.376 237.336 287.122 236.27 292.509 236.27C298.037 236.27 302.882 237.244 307.038 239.192C311.206 241.13 314.475 243.799 316.839 247.208C319.203 250.606 320.385 254.523 320.385 258.956C320.385 259.809 320.027 260.514 319.326 261.067C318.618 261.61 317.756 261.878 316.74 261.878H277.118C277.414 267.291 279.144 271.517 282.314 274.561C285.479 277.594 289.388 279.106 294.036 279.106C296.4 279.106 298.277 278.594 299.675 277.564C301.085 276.539 302.488 275.078 303.886 273.181C304.705 271.842 305.96 271.329 307.653 271.639L311.741 272.45C314.037 272.937 315.189 274.008 315.189 275.656C315.189 276.387 314.85 277.026 314.179 277.564ZM292.509 241.729C290.354 241.729 288.249 242.388 286.18 243.697C284.124 244.996 282.32 246.741 280.763 248.932C279.218 251.124 278.153 253.62 277.562 256.42H306.102C305.659 252.108 304.218 248.582 301.793 245.848C299.361 243.104 296.264 241.729 292.509 241.729Z" fill="black"/>
<path d="M108.867 401.937C108.867 402.789 108.498 403.519 107.759 404.128C107.02 404.737 106.134 405.041 105.1 405.041H98.4509C97.429 405.041 96.5548 404.737 95.816 404.128C95.0773 403.519 94.7079 402.789 94.7079 401.937V338.85C94.7079 337.998 95.0773 337.267 95.816 336.658C96.5548 336.05 97.429 335.745 98.4509 335.745H105.1C106.134 335.745 107.02 336.05 107.759 336.658C108.498 337.267 108.867 337.998 108.867 338.85V371.398H141.175V338.85C141.175 337.998 141.545 337.267 142.283 336.658C143.022 336.05 143.896 335.745 144.918 335.745H151.567C152.601 335.745 153.488 336.05 154.227 336.658C154.965 337.267 155.335 337.998 155.335 338.85V401.937C155.335 402.789 154.965 403.519 154.227 404.128C153.488 404.737 152.601 405.041 151.567 405.041H144.918C143.896 405.041 143.022 404.737 142.283 404.128C141.545 403.519 141.175 402.789 141.175 401.937V376.877H108.867V401.937Z" fill="black"/>
<path d="M185.75 405.954C181.022 405.954 177.015 404.94 173.733 402.911C170.446 400.871 167.934 398.056 166.198 394.469C164.474 390.888 163.612 386.779 163.612 382.152C163.612 377.597 164.622 373.462 166.641 369.754C168.673 366.051 171.499 363.109 175.112 360.927C178.738 358.736 182.98 357.64 187.843 357.64C194.197 357.64 199.473 358.751 203.677 360.968C207.876 363.19 211.003 366.061 213.059 369.592C215.128 373.112 216.162 376.846 216.162 380.793C216.162 381.036 216.162 381.28 216.162 381.523C216.685 385.597 217.276 389.29 217.935 392.603C218.606 395.92 219.271 398.665 219.93 400.841C220.01 401.034 220.053 401.277 220.053 401.571C220.053 403.398 218.902 404.468 216.605 404.778L210.301 405.407C208.245 405.579 206.959 404.889 206.435 403.317C206.14 402.343 205.881 401.338 205.672 400.293C203.16 402.069 200.242 403.454 196.93 404.453C193.612 405.452 189.887 405.954 185.75 405.954ZM185.75 400.476C189.358 400.476 192.35 399.492 194.714 397.513C197.078 395.54 198.863 393.039 200.082 390.005C201.295 386.961 201.904 383.831 201.904 380.61C201.904 380.61 201.904 380.6 201.904 380.57C201.904 380.529 201.904 380.422 201.904 380.245C201.818 379.935 201.781 379.596 201.781 379.23C201.781 378.936 201.781 378.662 201.781 378.419C201.566 375.74 200.901 373.234 199.787 370.89C198.685 368.552 197.139 366.67 195.157 365.249C193.169 363.819 190.731 363.098 187.843 363.098C186.298 363.098 184.747 364.027 183.189 365.878C181.644 367.735 180.357 370.119 179.323 373.041C178.289 375.963 177.772 379.002 177.772 382.152C177.772 385.318 178.172 388.301 178.978 391.101C179.797 393.891 180.831 396.149 182.081 397.878C183.343 399.613 184.568 400.476 185.75 400.476Z" fill="black"/>
<path d="M244.044 420.179C244.044 421.031 243.674 421.762 242.935 422.37C242.197 422.979 241.31 423.284 240.276 423.284H235.302C234.267 423.284 233.381 422.979 232.642 422.37C231.916 421.762 231.559 421.031 231.559 420.179V361.637C231.559 360.785 231.916 360.065 232.642 359.466C233.381 358.858 234.267 358.553 235.302 358.553H240.276C242.197 358.553 243.416 359.314 243.945 360.826C247.553 358.705 252.527 357.64 258.868 357.64C264.101 357.64 268.767 358.726 272.855 360.887C276.955 363.038 280.193 365.909 282.557 369.49C284.921 373.077 286.103 377.029 286.103 381.341C286.103 385.658 284.995 389.61 282.779 393.191C280.562 396.778 277.472 399.654 273.52 401.815C269.58 403.966 264.956 405.041 259.656 405.041C256.485 405.041 253.586 404.666 250.963 403.905C248.353 403.149 246.044 402.069 244.044 400.658V420.179ZM259.311 399.481C262.857 399.481 265.714 398.619 267.881 396.884C270.06 395.154 271.648 392.887 272.633 390.086C273.631 387.286 274.135 384.374 274.135 381.341C274.135 378.297 273.47 375.385 272.141 372.595C270.823 369.795 269.001 367.517 266.674 365.757C264.359 363.986 261.755 363.098 258.868 363.098C254.743 363.098 251.265 364.712 248.427 367.928C245.583 371.149 244.167 375.771 244.167 381.787C244.167 385.13 245.01 388.138 246.703 390.817C248.39 393.495 250.421 395.616 252.785 397.168C255.149 398.71 257.323 399.481 259.311 399.481Z" fill="black"/>
<path d="M309.646 420.179C309.646 421.031 309.277 421.762 308.538 422.37C307.799 422.979 306.913 423.284 305.879 423.284H300.904C299.87 423.284 298.984 422.979 298.245 422.37C297.518 421.762 297.161 421.031 297.161 420.179V361.637C297.161 360.785 297.518 360.065 298.245 359.466C298.984 358.858 299.87 358.553 300.904 358.553H305.879C307.799 358.553 309.018 359.314 309.548 360.826C313.155 358.705 318.129 357.64 324.47 357.64C329.703 357.64 334.37 358.726 338.457 360.887C342.557 363.038 345.796 365.909 348.16 369.49C350.524 373.077 351.706 377.029 351.706 381.341C351.706 385.658 350.598 389.61 348.381 393.191C346.165 396.778 343.075 399.654 339.122 401.815C335.182 403.966 330.559 405.041 325.258 405.041C322.088 405.041 319.188 404.666 316.566 403.905C313.956 403.149 311.647 402.069 309.646 400.658V420.179ZM324.914 399.481C328.46 399.481 331.316 398.619 333.483 396.884C335.662 395.154 337.251 392.887 338.236 390.086C339.233 387.286 339.738 384.374 339.738 381.341C339.738 378.297 339.073 375.385 337.743 372.595C336.426 369.795 334.604 367.517 332.277 365.757C329.962 363.986 327.358 363.098 324.47 363.098C320.346 363.098 316.867 364.712 314.029 367.928C311.185 371.149 309.769 375.771 309.769 381.787C309.769 385.13 310.613 388.138 312.306 390.817C313.992 393.495 316.024 395.616 318.388 397.168C320.752 398.71 322.925 399.481 324.914 399.481Z" fill="black"/>
<path d="M387.635 422.553C386.976 424.187 385.579 425.008 383.449 425.008H379.46C377.243 425.008 376.135 424.278 376.135 422.817C376.135 422.396 376.246 421.97 376.48 421.539L383.006 405.67C382.562 405.305 382.15 404.828 381.774 404.23L358.775 362.104C358.479 361.617 358.331 361.13 358.331 360.643C358.331 359.253 359.396 358.553 361.533 358.553H368.058C370.04 358.553 371.444 359.339 372.269 360.907L387.857 393.739L401.376 361.008C402.028 359.375 403.395 358.553 405.464 358.553H410.881C413.097 358.553 414.205 359.279 414.205 360.724C414.205 361.09 414.088 361.516 413.861 362.003L387.635 422.553Z" fill="black"/>
<rect x="126.056" y="46.3499" width="312.255" height="395.539" stroke="black"/>
</g>
<defs>
<filter id="filter0_b_29_2" x="-4" y="-4" width="599" height="495" filterUnits="userSpaceOnUse" color-interpolation-filters="sRGB">
<feFlood flood-opacity="0" result="BackgroundImageFix"/>
<feGaussianBlur in="BackgroundImage" stdDeviation="2"/>
<feComposite in2="SourceAlpha" operator="in" result="effect1_backgroundBlur_29_2"/>
<feBlend mode="normal" in="SourceGraphic" in2="effect1_backgroundBlur_29_2" result="shape"/>
</filter>
</defs>
</svg>
